<?xml version="1.0" standalone="no"?><!DOCTYPE svg PUBLIC "-//W3C//DTD SVG 1.1//EN" "http://www.w3.org/Graphics/SVG/1.1/DTD/svg11.dtd"><svg t="1547711765335" class="icon" style="" viewBox="0 0 1024 1024" version="1.1" xmlns="http://www.w3.org/2000/svg" p-id="2558" xmlns:xlink="http://www.w3.org/1999/xlink" width="16" height="16"><defs><style type="text/css"></style></defs><path d="M460.8 1006.933333c-3.413333 0-10.24 0-13.653333-3.413333-6.826667-6.826667-6.826667-17.066667 0-23.893333L914.773333 512 447.146667 47.786667c-6.826667-6.826667-6.826667-17.066667 0-23.893334s17.066667-6.826667 23.893333 0l477.866667 477.866667c6.826667 6.826667 6.826667 17.066667 0 23.893333l-477.866667 477.866667c0 3.413333-6.826667 3.413333-10.24 3.413333z" fill="#9a9a9a" p-id="2559"></path><path d="M85.333333 1006.933333c-3.413333 0-10.24 0-13.653333-3.413333-6.826667-6.826667-6.826667-17.066667 0-23.893333L539.306667 512 71.68 47.786667C68.266667 40.96 68.266667 27.306667 71.68 20.48s17.066667-6.826667 23.893333 0l477.866667 477.866667c6.826667 6.826667 6.826667 17.066667 0 23.893333l-477.866667 477.866667c0 6.826667-6.826667 6.826667-10.24 6.826666z" fill="#9a9a9a" p-id="2560"></path></svg>